<svg width="23" height="22" viewBox="0 0 23 22" fill="none" xmlns="http://www.w3.org/2000/svg">
<path d="M11.4948 0.37207C5.57016 0.37207 0.761719 5.18051 0.761719 11.1052C0.761719 17.0299 5.57016 21.8383 11.4948 21.8383C17.4195 21.8383 22.228 17.0299 22.228 11.1052C22.228 5.18051 17.4195 0.37207 11.4948 0.37207ZM9.43565 15.211L6.18477 11.7774C5.76617 11.3588 5.76617 10.6826 6.18477 10.264C6.60336 9.84539 7.27955 9.84539 7.69814 10.264L10.1977 12.9356L16.4676 7.5121C16.8862 7.09351 17.5624 7.09351 17.981 7.5121C18.3996 7.93069 18.3996 8.60688 17.981 9.02547L10.949 15.211C10.5412 15.6296 9.85424 15.6296 9.43565 15.211Z" fill="url(#paint0_linear_24687_25372)"/>
<defs>
<linearGradient id="paint0_linear_24687_25372" x1="0.761719" y1="11.1052" x2="22.228" y2="11.1052" gradientUnits="userSpaceOnUse">
<stop stop-color="#BF7B0B"/>
<stop offset="0.16" stop-color="#CE9823"/>
<stop offset="0.34" stop-color="#EDBE54"/>
<stop offset="0.53" stop-color="#F7D073"/>
<stop offset="0.78" stop-color="#D6A139"/>
<stop offset="1" stop-color="#C07F09"/>
</linearGradient>
</defs>
</svg>
